<svg xmlns="http://www.w3.org/2000/svg" width="375" viewBox="0 0 375 150" height="150" version="1.0"><defs><clipPath id="a"><path d="M 5.222656 4.542969 L 70.144531 4.542969 L 70.144531 69.464844 L 5.222656 69.464844 Z M 5.222656 4.542969"/></clipPath></defs><path fill="#FF1616" d="M 50.167969 32.007812 L 40.179688 32.007812 L 45.175781 14.53125 L 25.199219 41.996094 L 35.1875 41.996094 L 30.191406 59.476562 Z M 50.167969 32.007812"/><g clip-path="url(#a)"><path fill="#FF1616" d="M 37.683594 4.542969 C 19.753906 4.542969 5.222656 19.074219 5.222656 37.003906 C 5.222656 54.933594 19.753906 69.464844 37.683594 69.464844 C 55.613281 69.464844 70.144531 54.933594 70.144531 37.003906 C 70.144531 19.074219 55.613281 4.542969 37.683594 4.542969 Z M 37.683594 64.46875 C 22.539062 64.46875 10.214844 52.148438 10.214844 37.003906 C 10.214844 21.855469 22.539062 9.535156 37.683594 9.535156 C 52.828125 9.535156 65.152344 21.855469 65.152344 37.003906 C 65.152344 52.148438 52.828125 64.46875 37.683594 64.46875 Z M 37.683594 64.46875"/></g><g><g><g><path d="M 9.765625 -12.761719 L 6.421875 -3.089844 L 3.074219 -12.761719 L 0.265625 -12.761719 L 4.953125 0 L 7.867188 0 L 12.585938 -12.761719 Z M 9.765625 -12.761719" transform="translate(72.122 32.42)"/></g></g></g><g><g><g><path d="M 5.546875 0.175781 C 8.460938 0.175781 10.527344 -1.582031 10.527344 -4.546875 C 10.527344 -7.496094 8.46875 -9.265625 5.546875 -9.265625 C 2.640625 -9.265625 0.574219 -7.496094 0.574219 -4.546875 C 0.574219 -1.582031 2.65625 0.175781 5.546875 0.175781 Z M 5.519531 -1.847656 C 4.097656 -1.847656 3.101562 -2.921875 3.101562 -4.546875 C 3.101562 -6.171875 4.097656 -7.25 5.519531 -7.25 C 6.996094 -7.25 8 -6.171875 8 -4.546875 C 8 -2.921875 6.996094 -1.847656 5.519531 -1.847656 Z M 5.519531 -1.847656" transform="translate(84.969 32.42)"/></g></g></g><g><g><g><path d="M 1.316406 0 L 3.886719 0 L 3.886719 -13.566406 L 1.316406 -13.566406 Z M 1.316406 0" transform="translate(96.068 32.42)"/></g></g></g><g><g><g><path d="M 4.699219 0 L 6.375 0 L 6.375 -1.933594 L 5.554688 -1.933594 C 4.902344 -1.933594 4.503906 -2.296875 4.503906 -3.109375 L 4.503906 -7.125 L 6.375 -7.125 L 6.375 -9.078125 L 4.503906 -9.078125 L 4.503906 -12.011719 L 2.207031 -12.011719 L 2.207031 -10.808594 C 2.207031 -9.449219 1.679688 -9.078125 0.714844 -9.078125 L 0.140625 -9.078125 L 0.140625 -7.125 L 1.925781 -7.125 L 1.925781 -2.835938 C 1.925781 -1.023438 2.933594 0 4.699219 0 Z M 4.699219 0" transform="translate(101.269 32.42)"/></g></g></g><g><g><g><path d="M 3.972656 -2.339844 L 9.988281 -10.667969 L 9.988281 -12.761719 L 0.8125 -12.761719 L 0.8125 -10.429688 L 6.851562 -10.429688 L 0.804688 -2.09375 L 0.804688 0 L 10.101562 0 L 10.101562 -2.339844 Z M 3.972656 -2.339844" transform="translate(108.297 32.42)"/></g></g></g><g><g><g><path d="M 8.761719 -2.207031 L 8.761719 -5.980469 C 8.761719 -8.714844 6.765625 -9.253906 4.945312 -9.253906 C 2.535156 -9.253906 1.15625 -8.398438 0.777344 -6.515625 L 3.027344 -6.109375 C 3.1875 -7.136719 3.886719 -7.496094 4.804688 -7.496094 C 5.519531 -7.496094 6.332031 -7.25 6.332031 -6.359375 C 6.332031 -5.988281 6.101562 -5.765625 5.457031 -5.617188 L 3.964844 -5.28125 C 2.066406 -4.867188 0.664062 -4.230469 0.664062 -2.347656 C 0.664062 -0.460938 2.058594 0.175781 3.488281 0.175781 C 4.546875 0.175781 5.722656 -0.167969 6.402344 -0.988281 L 6.605469 0 L 8.980469 0 L 8.980469 -0.246094 C 8.824219 -0.757812 8.761719 -1.191406 8.761719 -2.207031 Z M 4.246094 -1.421875 C 3.601562 -1.421875 3.089844 -1.75 3.089844 -2.453125 C 3.089844 -3.144531 3.507812 -3.480469 4.308594 -3.671875 L 6.464844 -4.28125 C 6.464844 -2.324219 5.464844 -1.421875 4.246094 -1.421875 Z M 4.246094 -1.421875" transform="translate(119.175 32.42)"/></g></g></g><g><g><g><path d="M 6.640625 -9.253906 C 5.40625 -9.253906 4.300781 -8.761719 3.796875 -7.859375 L 3.726562 -9.078125 L 1.316406 -9.078125 L 1.316406 4.449219 L 3.859375 4.449219 L 3.859375 -1.078125 C 4.398438 -0.246094 5.457031 0.210938 6.640625 0.210938 C 9.035156 0.210938 11.011719 -1.546875 11.011719 -4.523438 C 11.011719 -7.496094 9.035156 -9.253906 6.640625 -9.253906 Z M 6.066406 -1.898438 C 4.707031 -1.898438 3.648438 -2.933594 3.648438 -4.523438 C 3.648438 -6.109375 4.707031 -7.144531 6.066406 -7.144531 C 7.402344 -7.144531 8.46875 -6.171875 8.46875 -4.523438 C 8.46875 -2.871094 7.402344 -1.898438 6.066406 -1.898438 Z M 6.066406 -1.898438" transform="translate(129.091 32.42)"/></g></g></g><g><g><g><path d="M 6.640625 -9.253906 C 5.40625 -9.253906 4.300781 -8.761719 3.796875 -7.859375 L 3.726562 -9.078125 L 1.316406 -9.078125 L 1.316406 4.449219 L 3.859375 4.449219 L 3.859375 -1.078125 C 4.398438 -0.246094 5.457031 0.210938 6.640625 0.210938 C 9.035156 0.210938 11.011719 -1.546875 11.011719 -4.523438 C 11.011719 -7.496094 9.035156 -9.253906 6.640625 -9.253906 Z M 6.066406 -1.898438 C 4.707031 -1.898438 3.648438 -2.933594 3.648438 -4.523438 C 3.648438 -6.109375 4.707031 -7.144531 6.066406 -7.144531 C 7.402344 -7.144531 8.46875 -6.171875 8.46875 -4.523438 C 8.46875 -2.871094 7.402344 -1.898438 6.066406 -1.898438 Z M 6.066406 -1.898438" transform="translate(140.702 32.42)"/></g></g></g><g><g><g><path d="M 3.726562 0 L 7.136719 0 L 9.597656 -7.886719 L 12.070312 0 L 15.480469 0 L 18.820312 -12.761719 L 16.074219 -12.761719 L 13.554688 -3.101562 L 10.722656 -12.761719 L 8.488281 -12.761719 L 5.632812 -3.101562 L 3.144531 -12.761719 L 0.386719 -12.761719 Z M 3.726562 0" transform="translate(101.536 54.3)"/></g></g></g><g><g><g><path d="M 9.855469 -4.671875 C 9.847656 -7.851562 7.929688 -9.273438 5.359375 -9.273438 C 2.5625 -9.273438 0.589844 -7.523438 0.589844 -4.539062 C 0.589844 -1.554688 2.507812 0.175781 5.441406 0.175781 C 7.480469 0.175781 9.113281 -0.875 9.714844 -2.710938 L 7.382812 -3.054688 C 7.039062 -2.25 6.332031 -1.828125 5.421875 -1.828125 C 4.210938 -1.828125 3.207031 -2.550781 3.101562 -4.0625 L 9.828125 -4.0625 Z M 5.378906 -7.472656 C 6.464844 -7.472656 7.277344 -6.828125 7.355469 -5.554688 L 3.144531 -5.554688 C 3.347656 -6.886719 4.167969 -7.472656 5.378906 -7.472656 Z M 5.378906 -7.472656" transform="translate(120.74 54.3)"/></g></g></g><g><g><g><path d="M 6.648438 -9.253906 C 5.449219 -9.253906 4.390625 -8.796875 3.859375 -7.972656 L 3.859375 -13.566406 L 1.316406 -13.566406 L 1.316406 0 L 3.726562 0 L 3.789062 -1.183594 C 4.300781 -0.292969 5.394531 0.210938 6.648438 0.210938 C 9.035156 0.210938 11.011719 -1.554688 11.011719 -4.523438 C 11.011719 -7.488281 9.035156 -9.253906 6.648438 -9.253906 Z M 6.058594 -1.898438 C 4.707031 -1.898438 3.65625 -2.933594 3.65625 -4.523438 C 3.65625 -6.109375 4.714844 -7.152344 6.058594 -7.152344 C 7.410156 -7.152344 8.46875 -6.15625 8.46875 -4.523438 C 8.46875 -2.898438 7.410156 -1.898438 6.058594 -1.898438 Z M 6.058594 -1.898438" transform="translate(131.213 54.3)"/></g></g></g><g><g><g><path d="M 4.511719 0.175781 C 6.472656 0.175781 8.25 -0.574219 8.25 -2.65625 C 8.25 -4.601562 6.710938 -5.210938 5.308594 -5.589844 C 4.167969 -5.898438 3.117188 -6.039062 3.117188 -6.753906 C 3.117188 -7.320312 3.691406 -7.558594 4.363281 -7.558594 C 5.105469 -7.558594 5.703125 -7.257812 5.980469 -6.410156 L 8.140625 -6.851562 C 7.789062 -8.582031 6.121094 -9.253906 4.355469 -9.253906 C 2.339844 -9.253906 0.792969 -8.398438 0.792969 -6.535156 C 0.792969 -5.007812 1.835938 -4.425781 2.921875 -4.042969 C 4.363281 -3.53125 5.792969 -3.453125 5.800781 -2.507812 C 5.820312 -1.792969 5.140625 -1.597656 4.511719 -1.597656 C 3.65625 -1.597656 2.96875 -1.976562 2.695312 -2.949219 L 0.566406 -2.347656 C 0.890625 -0.628906 2.472656 0.175781 4.511719 0.175781 Z M 4.511719 0.175781" transform="translate(142.824 54.3)"/></g></g></g><g><g><g><path d="M 2.613281 -10.4375 C 3.398438 -10.4375 4.070312 -11.09375 4.070312 -11.90625 C 4.070312 -12.707031 3.398438 -13.363281 2.613281 -13.363281 C 1.808594 -13.363281 1.140625 -12.707031 1.140625 -11.90625 C 1.140625 -11.09375 1.808594 -10.4375 2.613281 -10.4375 Z M 1.316406 0 L 3.875 0 L 3.875 -9.078125 L 1.316406 -9.078125 Z M 1.316406 0" transform="translate(151.724 54.3)"/></g></g></g><g><g><g><path d="M 4.699219 0 L 6.375 0 L 6.375 -1.933594 L 5.554688 -1.933594 C 4.902344 -1.933594 4.503906 -2.296875 4.503906 -3.109375 L 4.503906 -7.125 L 6.375 -7.125 L 6.375 -9.078125 L 4.503906 -9.078125 L 4.503906 -12.011719 L 2.207031 -12.011719 L 2.207031 -10.808594 C 2.207031 -9.449219 1.679688 -9.078125 0.714844 -9.078125 L 0.140625 -9.078125 L 0.140625 -7.125 L 1.925781 -7.125 L 1.925781 -2.835938 C 1.925781 -1.023438 2.933594 0 4.699219 0 Z M 4.699219 0" transform="translate(156.916 54.3)"/></g></g></g><g><g><g><path d="M 9.855469 -4.671875 C 9.847656 -7.851562 7.929688 -9.273438 5.359375 -9.273438 C 2.5625 -9.273438 0.589844 -7.523438 0.589844 -4.539062 C 0.589844 -1.554688 2.507812 0.175781 5.441406 0.175781 C 7.480469 0.175781 9.113281 -0.875 9.714844 -2.710938 L 7.382812 -3.054688 C 7.039062 -2.25 6.332031 -1.828125 5.421875 -1.828125 C 4.210938 -1.828125 3.207031 -2.550781 3.101562 -4.0625 L 9.828125 -4.0625 Z M 5.378906 -7.472656 C 6.464844 -7.472656 7.277344 -6.828125 7.355469 -5.554688 L 3.144531 -5.554688 C 3.347656 -6.886719 4.167969 -7.472656 5.378906 -7.472656 Z M 5.378906 -7.472656" transform="translate(163.945 54.3)"/></g></g></g></svg>