<svg xmlns="http://www.w3.org/2000/svg" width="262.5" viewBox="0 0 262.5 90" height="90" version="1.0"><defs><clipPath id="a"><path d="M 0 0.0859375 L 90 0.0859375 L 90 89.914062 L 0 89.914062 Z M 0 0.0859375"/></clipPath></defs><path fill="#CA1616" d="M 62.308594 38.164062 L 48.460938 38.164062 L 55.382812 13.933594 L 27.691406 52.007812 L 41.539062 52.007812 L 34.617188 76.238281 Z M 62.308594 38.164062"/><g clip-path="url(#a)"><path fill="#CA1616" d="M 45 0.0859375 C 20.144531 0.0859375 0 20.230469 0 45.085938 C 0 69.9375 20.144531 90.085938 45 90.085938 C 69.855469 90.085938 90 69.9375 90 45.085938 C 90 20.230469 69.855469 0.0859375 45 0.0859375 Z M 45 83.164062 C 24.003906 83.164062 6.921875 66.078125 6.921875 45.085938 C 6.921875 24.085938 24.003906 7.007812 45 7.007812 C 65.996094 7.007812 83.078125 24.085938 83.078125 45.085938 C 83.078125 66.078125 65.996094 83.164062 45 83.164062 Z M 45 83.164062"/></g><g fill="#CA1616"><g><g><path d="M 10.289062 -13.746094 L 6.910156 -4.023438 L 3.4375 -13.746094 L 0.15625 -13.746094 L 5.515625 0 L 8.324219 0 L 13.527344 -13.746094 Z M 10.289062 -13.746094" transform="translate(90 34.276)"/></g></g></g><g fill="#CA1616"><g><g><path d="M 6.402344 0.3125 C 9.679688 0.3125 12.132812 -2.101562 12.132812 -5.300781 C 12.132812 -8.503906 9.679688 -10.898438 6.402344 -10.898438 C 3.121094 -10.898438 0.667969 -8.503906 0.667969 -5.300781 C 0.667969 -2.101562 3.121094 0.3125 6.402344 0.3125 Z M 6.402344 -2.394531 C 4.75 -2.394531 3.574219 -3.574219 3.574219 -5.300781 C 3.574219 -7.007812 4.75 -8.207031 6.402344 -8.207031 C 8.050781 -8.207031 9.226562 -7.007812 9.226562 -5.300781 C 9.226562 -3.574219 8.050781 -2.394531 6.402344 -2.394531 Z M 6.402344 -2.394531" transform="translate(103.78 34.276)"/></g></g></g><g fill="#CA1616"><g><g><path d="M 1.375 0 L 4.242188 0 L 4.242188 -14.410156 L 1.375 -14.410156 Z M 1.375 0" transform="translate(116.597 34.276)"/></g></g></g><g fill="#CA1616"><g><g><path d="M 6.558594 -2.550781 C 5.496094 -2.550781 4.910156 -3.140625 4.910156 -4.164062 L 4.910156 -8.285156 L 7.796875 -8.285156 L 7.796875 -10.601562 L 4.871094 -10.601562 L 4.871094 -13.351562 L 4.320312 -13.351562 L 0.136719 -8.914062 L 0.136719 -8.285156 L 2.042969 -8.285156 L 2.042969 -3.769531 C 2.042969 -1.433594 3.476562 0 5.8125 0 L 7.855469 0 L 7.855469 -2.550781 Z M 6.558594 -2.550781" transform="translate(122.211 34.276)"/></g></g></g><g fill="#CA1616"><g><g><path d="M 4.988281 -2.75 L 10.660156 -13.195312 L 10.660156 -13.746094 L 0.824219 -13.746094 L 0.824219 -10.976562 L 6.242188 -10.976562 L 0.511719 -0.433594 L 0.511719 0 L 10.898438 0 L 10.898438 -2.75 Z M 4.988281 -2.75" transform="translate(130.652 34.276)"/></g></g></g><g fill="#CA1616"><g><g><path d="M 10.015625 -10.601562 L 9.71875 -9.601562 C 8.796875 -10.40625 7.597656 -10.898438 6.222656 -10.898438 C 3.042969 -10.898438 0.667969 -8.503906 0.667969 -5.300781 C 0.667969 -2.101562 3.042969 0.3125 6.222656 0.3125 C 7.578125 0.3125 8.757812 -0.15625 9.660156 -0.960938 L 9.914062 0 L 12.152344 0 L 12.152344 -10.601562 Z M 6.460938 -2.394531 C 4.789062 -2.394531 3.574219 -3.652344 3.574219 -5.300781 C 3.574219 -6.96875 4.789062 -8.207031 6.460938 -8.207031 C 8.128906 -8.207031 9.347656 -6.96875 9.347656 -5.300781 C 9.347656 -3.632812 8.128906 -2.394531 6.460938 -2.394531 Z M 6.460938 -2.394531" transform="translate(142.095 34.276)"/></g></g></g><g fill="#CA1616"><g><g><path d="M 7.148438 -10.898438 C 5.832031 -10.898438 4.652344 -10.425781 3.75 -9.621094 L 3.257812 -10.601562 L 1.375 -10.601562 L 1.375 3.828125 L 4.242188 3.828125 L 4.242188 -0.570312 C 5.046875 0 6.046875 0.332031 7.148438 0.332031 C 10.347656 0.332031 12.703125 -2.082031 12.703125 -5.300781 C 12.703125 -8.503906 10.347656 -10.898438 7.148438 -10.898438 Z M 6.910156 -2.394531 C 5.242188 -2.394531 4.023438 -3.632812 4.023438 -5.300781 C 4.023438 -6.949219 5.242188 -8.207031 6.910156 -8.207031 C 8.582031 -8.207031 9.796875 -6.949219 9.796875 -5.300781 C 9.796875 -3.632812 8.582031 -2.394531 6.910156 -2.394531 Z M 6.910156 -2.394531" transform="translate(155.64 34.276)"/></g></g></g><g fill="#CA1616"><g><g><path d="M 7.148438 -10.898438 C 5.832031 -10.898438 4.652344 -10.425781 3.75 -9.621094 L 3.257812 -10.601562 L 1.375 -10.601562 L 1.375 3.828125 L 4.242188 3.828125 L 4.242188 -0.570312 C 5.046875 0 6.046875 0.332031 7.148438 0.332031 C 10.347656 0.332031 12.703125 -2.082031 12.703125 -5.300781 C 12.703125 -8.503906 10.347656 -10.898438 7.148438 -10.898438 Z M 6.910156 -2.394531 C 5.242188 -2.394531 4.023438 -3.632812 4.023438 -5.300781 C 4.023438 -6.949219 5.242188 -8.207031 6.910156 -8.207031 C 8.582031 -8.207031 9.796875 -6.949219 9.796875 -5.300781 C 9.796875 -3.632812 8.582031 -2.394531 6.910156 -2.394531 Z M 6.910156 -2.394531" transform="translate(169.026 34.276)"/></g></g></g><g fill="#CA1616"><g><g><path d="M 10.679688 0 L 13.921875 0 L 8.363281 -13.746094 L 5.558594 -13.746094 L 0.15625 0 L 3.316406 0 L 4.261719 -2.59375 L 9.71875 -2.59375 Z M 6.988281 -10.113281 L 8.796875 -5.183594 L 5.183594 -5.183594 Z M 6.988281 -10.113281" transform="translate(122.836 61.276)"/></g></g></g><g fill="#CA1616"><g><g><path d="M 6.203125 0.3125 C 9.207031 0.3125 11.191406 -1.609375 11.191406 -4.476562 L 11.191406 -10.601562 L 8.324219 -10.601562 L 8.324219 -4.789062 C 8.324219 -3.296875 7.539062 -2.394531 6.203125 -2.394531 C 4.890625 -2.394531 4.085938 -3.277344 4.085938 -4.789062 L 4.085938 -10.601562 L 1.21875 -10.601562 L 1.21875 -4.476562 C 1.21875 -1.609375 3.21875 0.3125 6.203125 0.3125 Z M 6.203125 0.3125" transform="translate(136.93 61.276)"/></g></g></g><g fill="#CA1616"><g><g><path d="M 6.558594 -2.550781 C 5.496094 -2.550781 4.910156 -3.140625 4.910156 -4.164062 L 4.910156 -8.285156 L 7.796875 -8.285156 L 7.796875 -10.601562 L 4.871094 -10.601562 L 4.871094 -13.351562 L 4.320312 -13.351562 L 0.136719 -8.914062 L 0.136719 -8.285156 L 2.042969 -8.285156 L 2.042969 -3.769531 C 2.042969 -1.433594 3.476562 0 5.8125 0 L 7.855469 0 L 7.855469 -2.550781 Z M 6.558594 -2.550781" transform="translate(149.355 61.276)"/></g></g></g><g fill="#CA1616"><g><g><path d="M 6.402344 0.3125 C 9.679688 0.3125 12.132812 -2.101562 12.132812 -5.300781 C 12.132812 -8.503906 9.679688 -10.898438 6.402344 -10.898438 C 3.121094 -10.898438 0.667969 -8.503906 0.667969 -5.300781 C 0.667969 -2.101562 3.121094 0.3125 6.402344 0.3125 Z M 6.402344 -2.394531 C 4.75 -2.394531 3.574219 -3.574219 3.574219 -5.300781 C 3.574219 -7.007812 4.75 -8.207031 6.402344 -8.207031 C 8.050781 -8.207031 9.226562 -7.007812 9.226562 -5.300781 C 9.226562 -3.574219 8.050781 -2.394531 6.402344 -2.394531 Z M 6.402344 -2.394531" transform="translate(157.795 61.276)"/></g></g></g><g fill="#CA1616"><g><g><path d="M 13.429688 -10.839844 C 12.074219 -10.839844 10.878906 -10.171875 10.152344 -9.148438 C 9.523438 -10.210938 8.421875 -10.839844 7.070312 -10.839844 C 5.8125 -10.839844 4.652344 -10.230469 3.90625 -9.289062 L 3.378906 -10.601562 L 1.375 -10.601562 L 1.375 0 L 4.242188 0 L 4.242188 -5.734375 C 4.242188 -7.382812 5.007812 -8.324219 6.304688 -8.324219 C 7.324219 -8.324219 7.875 -7.578125 7.875 -6.164062 L 7.875 0 L 10.660156 0 L 10.660156 -5.734375 C 10.660156 -7.382812 11.425781 -8.324219 12.703125 -8.324219 C 13.746094 -8.324219 14.292969 -7.578125 14.292969 -6.164062 L 14.292969 0 L 17.160156 0 L 17.160156 -6.636719 C 17.160156 -9.128906 15.628906 -10.839844 13.429688 -10.839844 Z M 13.429688 -10.839844" transform="translate(170.613 61.276)"/></g></g></g><g fill="#CA1616"><g><g><path d="M 6.402344 0.3125 C 9.679688 0.3125 12.132812 -2.101562 12.132812 -5.300781 C 12.132812 -8.503906 9.679688 -10.898438 6.402344 -10.898438 C 3.121094 -10.898438 0.667969 -8.503906 0.667969 -5.300781 C 0.667969 -2.101562 3.121094 0.3125 6.402344 0.3125 Z M 6.402344 -2.394531 C 4.75 -2.394531 3.574219 -3.574219 3.574219 -5.300781 C 3.574219 -7.007812 4.75 -8.207031 6.402344 -8.207031 C 8.050781 -8.207031 9.226562 -7.007812 9.226562 -5.300781 C 9.226562 -3.574219 8.050781 -2.394531 6.402344 -2.394531 Z M 6.402344 -2.394531" transform="translate(189.025 61.276)"/></g></g></g><g fill="#CA1616"><g><g><path d="M 6.558594 -2.550781 C 5.496094 -2.550781 4.910156 -3.140625 4.910156 -4.164062 L 4.910156 -8.285156 L 7.796875 -8.285156 L 7.796875 -10.601562 L 4.871094 -10.601562 L 4.871094 -13.351562 L 4.320312 -13.351562 L 0.136719 -8.914062 L 0.136719 -8.285156 L 2.042969 -8.285156 L 2.042969 -3.769531 C 2.042969 -1.433594 3.476562 0 5.8125 0 L 7.855469 0 L 7.855469 -2.550781 Z M 6.558594 -2.550781" transform="translate(201.842 61.276)"/></g></g></g><g fill="#CA1616"><g><g><path d="M 1.375 -12.015625 L 4.222656 -12.015625 L 4.222656 -14.667969 L 1.375 -14.667969 Z M 1.375 0 L 4.242188 0 L 4.242188 -10.601562 L 1.375 -10.601562 Z M 1.375 0" transform="translate(210.283 61.276)"/></g></g></g><g fill="#CA1616"><g><g><path d="M 8.324219 -10.601562 L 5.773438 -3.496094 L 3.179688 -10.601562 L 0.117188 -10.601562 L 4.4375 0 L 7.089844 0 L 11.289062 -10.601562 Z M 8.324219 -10.601562" transform="translate(215.897 61.276)"/></g></g></g><g fill="#CA1616"><g><g><path d="M 11.664062 -5.320312 C 11.664062 -8.382812 9.425781 -10.898438 6.164062 -10.898438 C 3.023438 -10.898438 0.667969 -8.480469 0.667969 -5.300781 C 0.667969 -2.121094 3.042969 0.3125 6.164062 0.3125 C 8.640625 0.3125 10.660156 -1.160156 11.425781 -3.476562 L 8.421875 -3.476562 C 7.992188 -2.710938 7.167969 -2.238281 6.164062 -2.238281 C 4.769531 -2.238281 3.828125 -3.042969 3.574219 -4.496094 L 11.605469 -4.496094 C 11.644531 -4.769531 11.664062 -5.046875 11.664062 -5.320312 Z M 6.164062 -8.441406 C 7.460938 -8.441406 8.382812 -7.734375 8.796875 -6.441406 L 3.652344 -6.441406 C 3.984375 -7.695312 4.890625 -8.441406 6.164062 -8.441406 Z M 6.164062 -8.441406" transform="translate(227.36 61.276)"/></g></g></g></svg>